C:\Users\r0593348\3dpredictsim\Results\batch_windlass\Pog_s1_tmt_bCst_d00_k1500_WL20_ig24_act_TTC_GRF.mot
nRows=12
nColumns=19

name C:\Users\r0593348\3dpredictsim\Results\batch_windlass\Pog_s1_tmt_bCst_d00_k1500_WL20_ig24_act_TTC_GRF.mot
datacolumns 19
datarows 12
range 0.0000000000 0.1269317013
endheader
time 	ground_force_vx	ground_force_vy	ground_force_vz	ground_force_px	ground_force_py	ground_force_pz	1_ground_force_vx	1_ground_force_vy	1_ground_force_vz	1_ground_force_px	1_ground_force_py	1_ground_force_pz	ground_torque_x	ground_torque_y	ground_torque_z	1_ground_torque_x	1_ground_torque_y	1_ground_torque_z
        0.0000000000	      -61.9941584948	       43.6433044470	       10.6793744985	        0.1421899044	        0.0000000000	        0.0580830944	       64.4541919835	      318.2805688787	       -4.5304222067	       -0.3500005762	        0.0000000000	       -0.0318657427	        0.0000000000	        0.0000000000	        0.0000000000	        0.0000000000	        0.0000000000	        0.0000000000	
        0.0115392456	     -122.0952236419	      105.0841346969	       27.2388733004	        0.1546527553	        0.0000000000	        0.0564811239	       32.9846105568	      208.0443432899	      -11.2730714019	       -0.3367747619	        0.0000000000	       -0.0253166340	        0.0000000000	        0.0000000000	        0.0000000000	        0.0000000000	        0.0000000000	        0.0000000000	
        0.0230784911	     -114.2496108873	      239.6525261723	       39.3079317255	        0.1653590955	        0.0000000000	        0.0560389115	       15.3781731231	      157.4954961983	      -18.8555701987	       -0.3330666041	        0.0000000000	       -0.0234952564	        0.0000000000	        0.0000000000	        0.0000000000	        0.0000000000	        0.0000000000	        0.0000000000	
        0.0346177367	      -73.6414447645	      541.3366885878	       -5.9690410811	        0.1790303028	        0.0000000000	        0.0575218851	        8.3536782096	      107.1021587281	      -16.8114610586	       -0.3328383548	        0.0000000000	       -0.0235117320	        0.0000000000	        0.0000000000	        0.0000000000	        0.0000000000	        0.0000000000	        0.0000000000	
        0.0461569823	      -98.6208538781	      805.1030439766	      -27.3848391122	        0.1879317365	        0.0000000000	        0.0590150953	       -7.4083046979	       50.2531535761	       -8.8824074852	       -0.3339577908	        0.0000000000	       -0.0231902207	        0.0000000000	        0.0000000000	        0.0000000000	        0.0000000000	        0.0000000000	        0.0000000000	
        0.0576962279	     -131.0647578494	      941.0693787550	      -32.0341450580	        0.1955831844	        0.0000000000	        0.0596057635	       -6.5964174222	        6.9047015943	        0.0491902668	        0.0000000000	        0.0000000000	        0.0000000000	        0.0000000000	        0.0000000000	        0.0000000000	        0.0000000000	        0.0000000000	        0.0000000000	
        0.0692354734	     -147.3990432079	      990.1698030235	      -30.2873008099	        0.2050359455	        0.0000000000	        0.0589500503	       -0.2343721402	        0.2066232423	        0.0228988372	        0.0000000000	        0.0000000000	        0.0000000000	        0.0000000000	        0.0000000000	        0.0000000000	        0.0000000000	        0.0000000000	        0.0000000000	
        0.0807747190	     -141.1890216084	      957.6269185924	      -27.2348926556	        0.2134636866	        0.0000000000	        0.0579815410	        0.4028034020	       -0.3001212237	       -0.0423281750	        0.0000000000	        0.0000000000	        0.0000000000	        0.0000000000	        0.0000000000	        0.0000000000	        0.0000000000	        0.0000000000	        0.0000000000	
        0.0923139646	     -122.0755036917	      872.9104938539	      -23.6855559878	        0.2181943730	        0.0000000000	        0.0572782524	        0.1519751341	       -0.1029052024	       -0.0146784368	        0.0000000000	        0.0000000000	        0.0000000000	        0.0000000000	        0.0000000000	        0.0000000000	        0.0000000000	        0.0000000000	        0.0000000000	
        0.1038532102	     -103.7318217163	      795.8614630169	      -21.6074116125	        0.2214185940	        0.0000000000	        0.0569009776	        0.0354257068	       -0.0224943701	       -0.0029833657	        0.0000000000	        0.0000000000	        0.0000000000	        0.0000000000	        0.0000000000	        0.0000000000	        0.0000000000	        0.0000000000	        0.0000000000	
        0.1153924557	      -88.8120428668	      742.7477379321	      -21.5986504254	        0.2246166031	        0.0000000000	        0.0566562809	       -0.1086699935	        0.0658961227	        0.0081055430	        0.0000000000	        0.0000000000	        0.0000000000	        0.0000000000	        0.0000000000	        0.0000000000	        0.0000000000	        0.0000000000	        0.0000000000	
        0.1269317013	      -76.5996761401	      706.0990872103	      -21.9446662808	        0.2277146487	        0.0000000000	        0.0564968450	       -0.1020921501	        0.0601017866	        0.0066867499	        0.0000000000	        0.0000000000	        0.0000000000	        0.0000000000	        0.0000000000	        0.0000000000	        0.0000000000	        0.0000000000	        0.0000000000	
